<svg width="194" height="80" viewBox="0 0 194 80" fill="none" xmlns="http://www.w3.org/2000/svg">
<g clip-path="url(#clip0_2003_12600)">
<path d="M101.415 49.854V48.7513H96.8672V55.3253H98.1087V52.5318H101.347V51.4289H98.1087V49.854H101.415Z" fill="#6A7282"/>
<path d="M104.375 55.3258H105.616V48.7514H104.375V55.3258Z" fill="#6A7282"/>
<path d="M108.391 49.854H110.355V55.3258H111.597V49.854H113.561V48.7514H108.391V49.854Z" fill="#6A7282"/>
<path d="M120.827 48.7513V53.2317L117.589 48.7513H116.344V55.3253H117.585V50.7202L120.891 55.3253H122.068V48.7513H120.827Z" fill="#6A7282"/>
<path d="M125.461 55.3258H130.009V54.223H126.702V52.5319H129.941V51.429H126.702V49.854H130.009V48.7514H125.461V55.3258Z" fill="#6A7282"/>
<path d="M135.566 51.3341C134.839 51.1572 134.152 50.9876 134.162 50.5201C134.162 50.0625 134.573 49.7667 135.209 49.7667C135.952 49.7669 136.617 50.0377 137.091 50.5305L137.807 49.6031C137.17 48.9726 136.332 48.6545 135.306 48.6543C133.907 48.6543 132.891 49.4718 132.891 50.5977C132.892 52.0154 134.202 52.3323 135.25 52.5918C136.014 52.7894 136.674 52.9601 136.674 53.4984C136.674 53.8818 136.347 54.3295 135.423 54.3295C134.342 54.3179 133.714 53.7788 133.366 53.4076L132.672 54.3663C133.89 55.854 137.895 56.0504 137.935 53.3918C137.935 51.9384 136.628 51.6034 135.566 51.3341Z" fill="#6A7282"/>
<path d="M143.355 51.3314C142.628 51.1545 141.941 50.9849 141.951 50.5174C141.951 50.0597 142.362 49.764 142.998 49.764C143.74 49.7641 144.407 50.035 144.88 50.5278L145.596 49.6003C144.959 48.9698 144.121 48.6518 143.095 48.6516C141.696 48.6516 140.68 49.469 140.68 50.5951C140.681 52.0127 141.991 52.3296 143.039 52.5891C143.803 52.7867 144.463 52.9573 144.463 53.4957C144.463 53.8791 144.135 54.3268 143.212 54.3268C142.131 54.3148 141.503 53.7758 141.155 53.4048L140.461 54.3632C141.679 55.8514 145.684 56.0476 145.724 53.3891C145.724 51.9356 144.416 51.6007 143.355 51.3314Z" fill="#6A7282"/>
<path d="M95.784 38.9446C96.2303 36.2507 100.157 36.1426 100.409 38.9446H95.784ZM102.246 37.5112C101.381 35.8813 99.6666 34.9138 97.837 34.9138C95.0175 34.9138 92.8672 37.1672 92.8672 39.9469C92.8672 42.7267 95.2336 44.9369 98.0526 44.9369C99.6739 44.9369 101.087 44.2032 101.999 43.0534L99.9575 41.6428C99.2293 42.5758 97.8246 42.9149 96.8139 42.3854C96.0919 42.007 95.7086 41.3611 95.6642 40.6467H102.789C102.927 39.4427 102.708 38.3825 102.246 37.5112Z" fill="#6A7282"/>
<path d="M86.5698 42.6594C85.1357 42.6594 84.2214 41.4434 84.2214 39.9435C84.2214 38.4435 85.0493 37.2275 86.5698 37.2275C88.0815 37.2275 88.918 38.4435 88.918 39.9435C88.918 41.4434 88.0743 42.6594 86.5698 42.6594ZM88.8955 35.1617V36.2721C88.1938 35.5467 87.2409 35.1079 86.0935 35.1079C83.5786 35.1079 81.5271 37.1557 81.4623 40.0386C81.4003 42.7998 83.4778 44.9478 85.9926 44.9478C87.1076 44.9478 88.0559 44.519 88.7717 43.8054C88.7717 43.809 88.7723 43.8126 88.7728 43.8162C88.9816 46.0652 87.732 46.7189 85.7839 46.7189C85.3082 46.7189 84.8352 46.656 84.3939 46.5362V48.856C84.8904 48.9395 85.4105 48.9822 85.9423 48.9822C89.025 48.9822 91.4882 47.9188 91.4882 44.3543V35.1617H88.8955Z" fill="#6A7282"/>
<path d="M76.3346 34.9998C75.1408 34.9998 74.1513 35.4806 73.5158 36.2281V35.1615H70.9219V44.6782H73.6335V39.0669C73.6335 37.9857 74.0702 37.0782 75.4053 37.1303C76.4064 37.1693 77.2097 37.9857 77.2097 39.0669L77.2265 44.6782H79.9323V39.1385C79.9323 36.4118 78.3387 34.9998 76.3346 34.9998Z" fill="#6A7282"/>
<path d="M59.9713 34.9643C58.782 34.9658 58.0321 35.329 57.2895 36.3076V35.1615H54.6953V44.6782H57.4071V39.3001C57.3597 37.7767 58.3961 36.9017 59.9713 37.3209V34.9643Z" fill="#6A7282"/>
<path d="M64.4067 43.1901C63.2552 43.1901 62.5138 42.6555 62.5138 41.8438C62.5138 41.0717 63.2923 40.498 64.4184 40.498C65.5343 40.498 66.3283 41.0731 66.3283 41.8203C66.3283 42.5675 65.559 43.1901 64.4067 43.1901ZM63.7976 35.0539C62.8175 35.0539 61.9108 35.1005 61.1399 35.235V37.2746C61.6566 37.1847 62.3832 37.098 63.0376 37.098C65.7701 37.098 66.3229 37.9107 66.3229 39.1385L66.3249 39.5873C65.6557 39.059 64.6605 38.8074 63.3905 38.8799C61.0572 39.0134 59.6785 40.5322 59.8411 42.1991C60.0125 43.9597 61.8397 45.0135 63.9379 44.8219C64.8553 44.7383 65.6519 44.3732 66.2386 43.8503V44.6782H68.9078V38.9284C68.9078 37.0982 67.8706 35.0539 63.7976 35.0539Z" fill="#6A7282"/>
<path d="M106.063 42.1777V36.1693H108.401L108.571 35.1615H106.063V32.1912L104.681 32.7537V35.1615H103.599L103.43 36.1693H104.681V41.9838C104.702 43.8484 105.726 44.7752 107.23 44.7967C107.696 44.8034 108.146 44.7879 108.577 44.7541V43.6759C108.319 43.7138 108.081 43.7334 107.887 43.7334C106.9 43.7334 106.063 43.1034 106.063 42.1777Z" fill="#6A7282"/>
<path d="M111.164 44.6782V39.1624C111.132 37.5261 112.36 36.1264 114.182 36.1496C116.108 36.1685 117.069 37.4587 117.069 39.1828V44.6782H118.491V39.2487C118.491 36.8213 117.173 34.9783 114.529 34.9783C113.171 34.9783 111.932 35.6864 111.164 36.7629V31.4021L109.781 31.9646V44.6782H111.164Z" fill="#6A7282"/>
<path d="M136.335 43.7706C134.063 43.7706 132.589 42.0998 132.589 39.8599C132.589 37.5491 134.266 36.0322 136.335 36.0322C138.404 36.0322 140.081 37.5077 140.081 39.8599C140.081 42.1412 138.612 43.7706 136.335 43.7706ZM136.335 34.8706C133.51 34.8706 131.219 36.8429 131.219 39.8475C131.219 42.7598 133.232 44.9322 136.335 44.9322C139.444 44.9322 141.452 42.8138 141.452 39.8475C141.452 36.789 139.161 34.8706 136.335 34.8706Z" fill="#6A7282"/>
<path d="M147.532 34.9137C146.173 34.9137 145.352 35.449 144.66 36.5268V35.1615H143.305V44.6782H144.688V39.1624C144.688 38.8298 144.72 38.162 144.822 37.8451C145.296 36.4426 146.645 36.0774 147.812 36.2258V34.9292C147.72 34.9232 147.628 34.9137 147.532 34.9137Z" fill="#6A7282"/>
<path d="M156.193 35.1615V40.6581C156.193 42.1551 155.483 43.6435 153.261 43.6435C150.87 43.6435 150.329 42.0096 150.329 40.5126V35.1615H148.93V40.4641C148.93 43.0077 149.932 44.8067 152.999 44.8067C154.275 44.8067 155.428 44.1665 156.185 43.1774V43.8855C156.264 46.4652 154.125 47.6045 151.064 47.143V48.3244C155.012 48.8463 157.675 47.254 157.579 44.0692V35.1615H156.193Z" fill="#6A7282"/>
<path d="M46.1886 44.7199C43.7696 44.7199 41.8085 42.5371 41.8085 39.8446C41.8085 37.1521 43.7696 34.9693 46.1886 34.9693C48.6076 34.9693 50.5685 37.1521 50.5685 39.8446C50.5685 42.5371 48.6076 44.7199 46.1886 44.7199ZM54.1629 45.8035C52.3732 46.0649 51.4688 44.5773 52.0582 43.2873C53.0213 41.1938 53.0386 38.5142 52.0767 36.4178C51.6357 35.3671 52.3696 33.5999 54.1615 33.8812C55.1214 34.0204 55.8661 33.1226 55.8661 31.8805C55.8661 30.64 55.1191 29.4406 54.1591 29.192C53.1511 28.932 52.2792 29.7889 52.2792 31.1755C52.2792 33.5271 50.9706 34.4663 49.9168 33.5682C48.0654 31.928 45.1548 31.5471 42.9388 32.6164C41.7268 33.0593 39.4429 31.556 39.4616 28.5471C39.4616 26.7903 37.9548 24.9993 35.9794 24.489C33.8649 23.9432 32.0226 25.0831 32.022 27.0728C32.0226 29.0639 33.8649 30.9418 35.9794 31.248C39.0456 31.7016 40.8008 33.7041 39.8758 35.3427C38.2303 37.7648 38.1693 41.7113 39.7612 44.1841C40.6016 45.7484 38.9978 47.985 35.9729 48.4272C33.8575 48.7364 32.0006 50.6178 32 52.6082C32 54.5987 33.8569 55.7323 35.9724 55.1863C37.9473 54.6759 39.455 52.8625 39.455 51.1054C39.4574 48.4615 41.1159 46.2854 43.0166 47.1032C45.2191 48.115 48.099 47.7336 49.93 46.123C50.7899 45.4499 52.2682 46.1652 52.2681 48.524C52.2681 49.8773 53.1472 50.7551 54.1558 50.4941C55.1154 50.2453 55.8627 49.0466 55.8627 47.8049C55.8627 46.5633 55.1226 45.6643 54.1629 45.8035Z" fill="#6A7282"/>
<path d="M159.972 33.3236H160.161C160.382 33.3236 160.56 33.2501 160.56 33.0722C160.56 32.9149 160.444 32.8106 160.193 32.8106C160.088 32.8106 160.015 32.8208 159.972 32.8317V33.3236ZM159.962 34.2869H159.563V32.5803C159.72 32.5484 159.94 32.517 160.224 32.517C160.549 32.517 160.697 32.5694 160.822 32.6533C160.917 32.7267 160.991 32.863 160.991 33.0199C160.991 33.2186 160.844 33.3653 160.633 33.4279V33.4489C160.801 33.5015 160.896 33.6377 160.949 33.868C161.001 34.1296 161.032 34.2346 161.074 34.2869H160.644C160.592 34.2244 160.56 34.0777 160.508 33.8789C160.476 33.6901 160.371 33.6064 160.15 33.6064H159.962V34.2869ZM160.224 32.0251C159.468 32.0251 158.902 32.643 158.902 33.3965C158.902 34.1611 159.468 34.7687 160.245 34.7687C161.001 34.779 161.557 34.1611 161.557 33.3965C161.557 32.643 161.001 32.0251 160.234 32.0251H160.224ZM160.245 31.6795C161.232 31.6795 161.998 32.444 161.998 33.3965C161.998 34.3708 161.232 35.125 160.234 35.125C159.248 35.125 158.461 34.3708 158.461 33.3965C158.461 32.444 159.248 31.6795 160.234 31.6795H160.245Z" fill="#6A7282"/>
<path d="M125.075 36.0886C126.806 36.1536 128.158 37.2633 128.414 39.2573C127.006 39.2573 123.324 39.2573 121.47 39.2573C121.799 37.3071 123.3 36.0219 125.075 36.0886ZM127.959 42.355C127.323 43.0818 126.21 43.7588 124.989 43.7472C123.081 43.7291 121.44 42.4222 121.414 40.3188H129.719C129.979 37.2849 127.733 35.1075 125.005 35.0109C122.234 34.9127 119.992 36.9819 119.992 39.9866C119.992 42.8989 121.968 44.9442 125.014 44.9442C126.76 44.9442 128.147 44.2357 129.018 43.0864L127.959 42.355Z" fill="#6A7282"/>
</g>
<defs>
<clipPath id="clip0_2003_12600">
<rect width="130" height="32" fill="white" transform="translate(32 24)"/>
</clipPath>
</defs>
</svg>
