<svg width="164" height="80" viewBox="0 0 164 80" fill="none" xmlns="http://www.w3.org/2000/svg">
<g clip-path="url(#clip0_104_1755)">
<path d="M61.8586 29.481C61.4824 29.103 60.901 29.103 60.5247 29.481L59.9775 30.0308C59.6013 30.4088 59.6013 30.9929 59.9775 31.3709L68.6306 40.0987L59.9775 48.8266C59.6013 49.2045 59.6013 49.7887 59.9775 50.1667L60.5247 50.7164C60.901 51.0945 61.4824 51.0945 61.8586 50.7164L72.3928 40.0987L61.8586 29.481Z" fill="#6A7282"/>
<path d="M127.663 30.993C127.663 29.859 128.519 29 129.647 29C130.775 29 131.631 29.859 131.631 30.993C131.631 32.1269 130.775 32.9859 129.647 32.9859C128.519 32.9859 127.663 32.1269 127.663 30.993ZM131.392 30.993C131.392 29.9621 130.673 29.2405 129.647 29.2405C128.621 29.2405 127.903 29.9965 127.903 30.993C127.903 32.0238 128.621 32.7454 129.647 32.7454C130.639 32.7798 131.392 31.9895 131.392 30.993ZM129.305 31.9895H129.031V29.9278C129.168 29.8934 129.339 29.8934 129.51 29.8934C130.023 29.8934 130.331 30.1339 130.331 30.5806C130.331 30.9243 130.092 31.1304 129.852 31.1991L130.536 32.0238H130.228L129.613 31.2679H129.339L129.305 31.9895ZM129.305 31.0273H129.544C129.818 31.0273 130.057 30.8899 130.057 30.5806C130.057 30.3057 129.852 30.1683 129.51 30.1683C129.442 30.1683 129.339 30.1683 129.27 30.1683L129.305 31.0273Z" fill="#6A7282"/>
<path d="M119.796 38.8617C119.796 38.8617 118.804 38.6212 118.257 38.415C116.513 37.7965 114.905 36.8688 114.905 35.185C114.905 33.2264 116.581 31.8863 119.112 31.8863C120.788 31.8863 122.088 32.3674 123.011 33.2951L123.319 33.6044C123.695 33.9824 124.276 33.9824 124.653 33.6044L125.2 33.0546C125.576 32.6766 125.576 32.0925 125.2 31.7145C125.063 31.5427 124.892 31.4053 124.892 31.4053C123.422 29.9964 121.403 29.2405 119.112 29.2405C117.026 29.2405 115.35 29.7903 113.948 30.9586C112.613 32.0925 111.964 33.5013 111.964 35.2194C111.964 39.4115 115.863 40.4424 119.283 41.3701L119.386 41.4045C122.395 42.1261 123.9 43.3287 123.9 44.9781C123.9 47.0741 122.156 48.3112 119.283 48.3112C117.47 48.3112 115.863 47.6926 114.768 46.5931L114.461 46.2838C114.084 45.9059 113.503 45.9059 113.127 46.2838L112.477 46.9367C112.1 47.3147 112.1 47.8988 112.477 48.2768L112.785 48.586C114.358 50.1323 116.616 50.9914 119.283 50.9914C121.506 50.9914 123.319 50.4416 124.755 49.3076C126.158 48.2424 126.842 46.7649 126.842 44.9437C126.91 41.0609 123.558 39.7208 119.796 38.8617Z" fill="#6A7282"/>
<path d="M95.4788 29.2061C89.4934 29.2061 84.6709 34.0854 84.6709 40.0987C84.6709 46.112 89.4934 50.9913 95.4788 50.9913C101.464 50.9913 106.287 46.112 106.287 40.0987C106.287 34.0854 101.43 29.2061 95.4788 29.2061ZM95.4788 31.8863C99.9934 31.8863 103.653 35.563 103.653 40.0987C103.653 44.6344 99.9934 48.3111 95.4788 48.3111C90.9641 48.3111 87.3045 44.6344 87.3045 40.0987C87.3045 35.563 90.9641 31.8863 95.4788 31.8863Z" fill="#6A7282"/>
<path d="M81.046 50.1668L80.4988 50.7166C80.1225 51.0946 79.5412 51.0946 79.1649 50.7166L71.8115 43.3288L73.6926 41.439L81.046 48.8267C81.4223 49.1704 81.4223 49.7888 81.046 50.1668Z" fill="#6A7282"/>
<path d="M81.046 30.0308L80.4988 29.481C80.1225 29.103 79.5412 29.103 79.1649 29.481L71.8115 36.8688L73.6926 38.7586L81.046 31.3709C81.4223 31.0273 81.4223 30.4088 81.046 30.0308Z" fill="#6A7282"/>
<path d="M50.9821 40.1331C50.9479 44.6344 47.2882 48.3111 42.8078 48.3111C38.2932 48.3111 34.6336 44.6344 34.6336 40.0987C34.6336 35.563 38.3274 31.8863 42.8078 31.8863C47.2882 31.8863 50.9479 35.5286 50.9821 40.0643V40.1331ZM52.6922 29.2061H51.9055C51.3926 29.2061 50.9479 29.6184 50.9479 30.1682V32.9515C48.9984 30.6492 46.0912 29.2061 42.8078 29.2061C36.8225 29.2061 32 34.0854 32 40.0987C32 46.112 36.8567 50.9913 42.8078 50.9913C46.057 50.9913 48.9984 49.5481 50.9821 47.2459V50.0292C50.9821 50.5446 51.3926 50.9913 51.9398 50.9913H52.7264C53.2394 50.9913 53.6841 50.5789 53.6841 50.0292V30.1682C53.6499 29.6528 53.2394 29.2061 52.6922 29.2061Z" fill="#6A7282"/>
</g>
<defs>
<clipPath id="clip0_104_1755">
<rect width="100" height="22" fill="white" transform="translate(32 29)"/>
</clipPath>
</defs>
</svg>
