<svg width="144" height="80" viewBox="0 0 144 80" fill="none" xmlns="http://www.w3.org/2000/svg">
<g clip-path="url(#clip0_104_1747)">
<path d="M48.818 50.2255L48.8188 50.2262C48.9677 50.3712 49.1176 50.5172 49.2623 50.6564V50.6632C49.6966 51.0774 49.398 51.8055 48.7874 51.8055H39.7243C39.1138 51.8055 38.8153 51.084 39.2494 50.6632C39.5411 50.3825 39.8532 50.082 40.1381 49.8013C40.7826 49.1734 41.1422 48.3183 41.1422 47.4297V44.626C41.1426 43.5783 41.143 42.5262 40.7622 41.5241C40.4162 40.6155 37.1125 34.9838 34.8739 31.2093C34.4261 30.4544 33.8427 29.7796 33.1508 29.2251C32.988 29.0915 32.8455 28.978 32.7437 28.8978C32.2146 28.4769 32.3435 27.7487 32.954 27.7554C33.0627 27.7554 33.9969 27.7567 35.044 27.7582C36.3792 27.76 37.898 27.7621 38.1233 27.7621C38.8492 27.7621 39.5208 28.1429 39.8735 28.7575C41.427 31.403 45.5856 38.5312 46.5827 40.4953C47.1051 41.5108 47.3697 42.6331 47.3697 43.7755V47.4231C47.3697 48.3116 47.7292 49.1667 48.3737 49.7947C48.5169 49.9324 48.667 50.0785 48.818 50.2255Z" fill="#6A7282"/>
<path d="M52.4585 31.7298C52.4246 31.6964 52.384 31.6764 52.3365 31.6764V31.663C52.3026 31.663 52.2754 31.6764 52.2483 31.6897C49.2634 33.3365 47.9029 34.8999 47.1454 36.784C47.0477 37.027 46.7078 36.9666 46.6054 36.784C43.9699 32.082 49.268 29.2761 50.7947 28.7569C52.5585 28.1557 54.8261 27.6546 56.6713 27.7882C57.229 27.8286 57.5408 28.3999 57.2986 28.897C56.6089 30.3123 56.3417 31.714 56.0977 32.9935C55.9279 33.8844 55.7694 34.7161 55.4874 35.452C55.3591 35.7865 55.2054 36.1011 55.0136 36.3925C54.2879 37.4947 52.8933 38.2686 50.7282 38.5083C50.2621 38.5598 49.7601 38.5867 49.2213 38.5867C48.0527 38.5867 48.167 37.4246 48.8377 36.2381C49.9178 34.3274 52.3431 32.0236 52.445 31.9369C52.5129 31.8634 52.4993 31.7832 52.4585 31.7298Z" fill="#6A7282"/>
<path d="M57.7435 35.4898C57.8252 35.2281 58.1172 35.0476 58.3098 35.245C58.3246 35.2602 58.3388 35.276 58.3524 35.2925C58.5161 35.491 58.598 35.7515 58.598 36.074V45.8417C58.598 46.6976 58.7744 47.3426 59.127 47.7767C59.4922 48.1985 59.9834 48.4092 60.6006 48.4092C61.0289 48.4092 61.4571 48.3163 61.8855 48.1302C62.3137 47.9317 62.7481 47.634 63.189 47.2371L63.2268 47.2023V39.9439C63.2268 39.5842 63.1826 39.3299 63.0945 39.1811C63.0189 39.0322 62.8867 38.9144 62.6977 38.8276L62.0932 38.7717C61.8665 38.6477 61.7027 38.5174 61.602 38.3811C61.5138 38.2446 61.4697 38.071 61.4697 37.86C61.4697 37.6121 61.5453 37.4074 61.6965 37.2461C61.8476 37.0725 62.1058 36.9112 62.471 36.7624L66.3441 35.4414C66.7975 35.2678 67.1502 35.1499 67.4021 35.0879C67.654 35.0259 67.887 34.9949 68.1011 34.9949C68.4286 34.9949 68.6742 35.0941 68.8379 35.2925C69.0142 35.491 69.1025 35.7515 69.1025 36.074V48.2791C69.1025 48.7255 69.1402 49.0418 69.2158 49.2279C69.3039 49.414 69.4362 49.5504 69.6126 49.6372L70.0849 49.786C70.299 49.9225 70.4564 50.0713 70.5571 50.2326C70.658 50.3814 70.7083 50.5799 70.7083 50.8279C70.7083 51.1381 70.6138 51.38 70.4248 51.5536C70.2361 51.7272 69.9778 51.814 69.6503 51.814H65.5506C64.8452 51.814 64.3036 51.6156 63.9258 51.2186C63.5479 50.8218 63.3589 50.3131 63.3589 49.693V49.1137L63.353 49.115C62.2243 50.1778 61.1872 50.9472 60.2417 51.4233C59.1459 51.9691 58.1005 52.2419 57.1055 52.2419C55.783 52.2419 54.725 51.8016 53.9315 50.921C53.138 50.0279 52.7412 48.7566 52.7412 47.1069V40.6625C52.7412 40.4236 52.9092 40.2184 53.1413 40.1491C54.7944 39.6562 56.0966 38.5419 56.921 37.2897C57.2927 36.7251 57.5509 36.108 57.7435 35.4898Z" fill="#6A7282"/>
<path d="M79.9009 38.0468V36.0556C79.9009 35.7332 79.819 35.4727 79.6553 35.2743C79.4915 35.0758 79.2459 34.9765 78.9185 34.9765C78.6917 34.9765 78.4524 35.0076 78.2005 35.0696C77.9486 35.1316 77.596 35.2494 77.1424 35.4231L73.2695 36.7441C72.9043 36.8928 72.646 37.0541 72.4949 37.2278C72.3563 37.4015 72.2871 37.6061 72.2871 37.8418C72.2871 38.0526 72.3312 38.2263 72.4193 38.3627C72.5201 38.4992 72.6838 38.6294 72.9105 38.7534L73.4963 38.8279C73.6851 38.9022 73.8238 39.014 73.9119 39.1627C74 39.3116 74.0441 39.5658 74.0441 39.9255V48.2793C74.0441 48.7258 74 49.0421 73.9119 49.2281C73.8362 49.4142 73.7103 49.5507 73.534 49.6375L73.0427 49.8049C72.8413 49.929 72.6838 50.0716 72.5705 50.2328C72.4697 50.3942 72.4193 50.5926 72.4193 50.8282C72.4193 51.1383 72.5138 51.3801 72.7028 51.5538C72.8916 51.7275 73.1499 51.8143 73.4773 51.8143H80.4299C81.0723 51.8143 81.3934 51.4856 81.3934 50.8282C81.3934 50.4561 81.2297 50.1584 80.9022 49.9352L80.3921 49.7492C80.2032 49.6375 80.0709 49.4824 79.9953 49.284C79.9324 49.0855 79.9009 48.7506 79.9009 48.2793V39.993L79.9764 39.9255C80.4046 39.5287 80.8078 39.2371 81.1856 39.0511C81.5635 38.865 81.9413 38.7721 82.3191 38.7721C82.9112 38.7721 83.3458 38.9705 83.6228 39.3674C83.9124 39.7519 84.1076 40.3473 84.2084 41.1535L85.0587 48.3723C85.1217 48.8064 85.1027 49.1165 85.002 49.3026C84.9138 49.4886 84.7689 49.6375 84.5674 49.7492L84.0573 49.9352C83.7172 50.146 83.5472 50.4437 83.5472 50.8282C83.5472 51.4856 83.8684 51.8143 84.5108 51.8143H91.5388C91.8663 51.8143 92.1246 51.7275 92.3135 51.5538C92.5024 51.3801 92.5969 51.1383 92.5969 50.8282C92.5969 50.5802 92.5401 50.3817 92.4268 50.2328C92.326 50.084 92.1749 49.9413 91.9734 49.8049L91.501 49.6375C91.3248 49.5383 91.2051 49.3956 91.1421 49.2096C91.0917 49.0235 91.035 48.7072 90.9721 48.2608L89.933 39.3302C89.7693 37.9162 89.3661 36.8308 88.7238 36.0742C88.094 35.3176 87.1306 34.9393 85.8333 34.9393C84.8634 34.9393 83.862 35.2308 82.8293 35.8138C81.9707 36.2881 80.9945 37.0325 79.9009 38.0468Z" fill="#6A7282"/>
<path fill-rule="evenodd" clip-rule="evenodd" d="M103.994 50.1476L103.985 50.1466C103.506 50.7001 102.89 51.1506 102.136 51.498C101.141 51.9569 100.058 52.1864 98.8868 52.1864C97.3754 52.1864 96.1788 51.8019 95.2972 51.0329C94.4155 50.2639 93.9746 49.2716 93.9746 48.056C93.9746 46.4807 94.6233 45.2466 95.9207 44.3536C97.2305 43.4481 99.0946 42.9954 101.513 42.9954C102.092 42.9954 102.627 43.045 103.119 43.1442C103.223 43.1627 103.324 43.1828 103.421 43.2045V38.6418C103.421 38.0216 103.27 37.5441 102.968 37.2091C102.678 36.8619 102.269 36.6883 101.74 36.6883C101.273 36.6883 100.896 36.8061 100.606 37.0418C100.329 37.265 100.19 37.5627 100.19 37.9348V38.9953C100.19 39.8387 99.9259 40.5024 99.3969 40.986C98.8679 41.4574 98.1311 41.6931 97.1864 41.6931C96.3426 41.6931 95.7128 41.5008 95.2972 41.1162C94.8816 40.7194 94.6737 40.1736 94.6737 39.479C94.6737 38.71 94.9759 37.9844 95.5805 37.3022C96.1851 36.6076 97.0857 36.0432 98.2822 35.6091C99.4913 35.1626 100.984 34.9393 102.76 34.9393C104.989 34.9393 106.633 35.3796 107.691 36.2603C108.761 37.1285 109.297 38.3379 109.297 39.8884V48.0932C109.297 48.3413 109.347 48.546 109.448 48.7072C109.561 48.856 109.738 48.9304 109.977 48.9304C110.128 48.9304 110.26 48.8995 110.374 48.8375C110.487 48.7631 110.581 48.6576 110.657 48.5212C110.695 48.4715 110.745 48.4344 110.808 48.4095C110.871 48.3723 110.94 48.3537 111.016 48.3537C111.192 48.3537 111.331 48.4281 111.432 48.577C111.532 48.7258 111.583 48.9119 111.583 49.1352C111.583 49.5817 111.425 50.0406 111.11 50.512C110.808 50.9833 110.361 51.3801 109.769 51.7027C109.19 52.0252 108.465 52.1864 107.596 52.1864C106.475 52.1864 105.575 51.9197 104.895 51.3864C104.447 51.0352 104.147 50.6223 103.994 50.1476ZM103.413 48.8207C103.315 48.8871 103.211 48.9486 103.1 49.0049C102.722 49.2034 102.313 49.3026 101.872 49.3026C101.255 49.3026 100.757 49.1103 100.379 48.7258C100.014 48.3289 99.8314 47.746 99.8314 46.9769C99.8314 46.183 100.027 45.5692 100.417 45.135C100.808 44.7009 101.337 44.4839 102.004 44.4839C102.382 44.4839 102.716 44.521 103.005 44.5955C103.143 44.6248 103.281 44.6653 103.421 44.7169V48.8135L103.413 48.8207Z" fill="#6A7282"/>
</g>
<defs>
<clipPath id="clip0_104_1747">
<rect width="80" height="26" fill="white" transform="translate(32 27)"/>
</clipPath>
</defs>
</svg>
