<svg width="132" height="80" viewBox="0 0 132 80" fill="none" xmlns="http://www.w3.org/2000/svg">
<g clip-path="url(#clip0_2003_12604)">
<path d="M47.1248 57.5434V54.3842L47.0631 54.4114C46.3533 54.7561 45.5811 54.9527 44.7933 54.9893C43.9745 55.0536 43.1608 54.813 42.5078 54.3135C42.0414 53.9524 41.6946 53.4584 41.5129 52.8962C41.3124 52.2837 41.2893 51.6267 41.4462 51.0015C41.5918 50.362 41.9489 49.7908 42.4593 49.3808C42.9119 49.0011 43.465 48.7619 44.051 48.6924C45.0867 48.5772 46.1331 48.774 47.0568 49.2577L47.1248 49.293V46.1162L46.9813 46.0777C46.0564 45.7797 45.0854 45.6522 44.1152 45.7013C43.2316 45.724 42.3614 45.9237 41.5558 46.2886C40.7424 46.6622 40.0254 47.2179 39.4597 47.913C38.6001 49.0042 38.123 50.3493 38.1023 51.7399C38.0816 53.1305 38.5184 54.4892 39.3451 55.6057C40.1817 56.6792 41.3562 57.4368 42.6771 57.7549C44.0692 58.0947 45.5281 58.0429 46.8938 57.6072L47.1248 57.5434Z" fill="#6A7282"/>
<path d="M78.2967 57.5434V54.3842L78.235 54.4114C77.5252 54.7561 76.753 54.9527 75.9652 54.9893C75.1464 55.0536 74.3327 54.813 73.6796 54.3135C73.2133 53.9524 72.8665 53.4584 72.6848 52.8962C72.4843 52.2837 72.4612 51.6267 72.6181 51.0015C72.7637 50.362 73.1208 49.7908 73.6311 49.3808C74.0838 49.0011 74.6369 48.7619 75.2228 48.6924C76.2585 48.5772 77.305 48.774 78.2287 49.2577L78.2967 49.293V46.1162L78.1531 46.0777C77.2283 45.7797 76.2572 45.6522 75.2871 45.7013C74.4034 45.724 73.5332 45.9237 72.7276 46.2886C71.9143 46.6622 71.1972 47.2179 70.6316 47.913C69.772 49.0042 69.2949 50.3493 69.2741 51.7399C69.2534 53.1305 69.6902 54.4892 70.517 55.6057C71.3536 56.6792 72.5281 57.4368 73.849 57.7549C75.2411 58.0947 76.7 58.0429 78.0656 57.6072L78.2967 57.5434Z" fill="#6A7282"/>
<path fill-rule="evenodd" clip-rule="evenodd" d="M58.251 54.9211L58.239 57.6419L58.4373 57.676C59.06 57.7929 59.6884 57.8737 60.3199 57.9192C60.8729 57.9705 61.4289 57.9813 61.9834 57.9514C62.5136 57.9135 63.038 57.8137 63.5449 57.6558C64.1405 57.4869 64.693 57.1916 65.1649 56.7899C65.5898 56.426 65.9145 55.9589 66.1081 55.4333C66.4458 54.5532 66.4391 53.5776 66.0892 52.7023C65.9052 52.2481 65.6152 51.8448 65.2436 51.5263C64.8844 51.2016 64.4621 50.955 64.0033 50.8019L61.957 50.0402C61.7125 49.936 61.5141 49.7464 61.3985 49.5065C61.354 49.408 61.3329 49.3006 61.3368 49.1925C61.3408 49.0844 61.3696 48.9788 61.4212 48.8838C61.4578 48.8164 61.5038 48.7545 61.5578 48.7C61.6454 48.6103 61.7476 48.5362 61.86 48.4809C62.0886 48.3672 62.3354 48.2958 62.5891 48.268C63.0221 48.2054 63.4621 48.2101 63.8937 48.2819C64.4037 48.3375 64.9093 48.4278 65.4061 48.5535L65.5119 48.5769V46.067L65.3167 46.0246C64.8095 45.9029 64.2957 45.8112 63.7779 45.7499C63.1067 45.66 62.4268 45.657 61.7549 45.7411C60.9036 45.8193 60.0939 46.146 59.4259 46.6809C58.973 47.0375 58.6284 47.5139 58.431 48.0564C58.134 48.8829 58.1334 49.7874 58.4292 50.6143C58.5815 51.0249 58.8258 51.3956 59.1444 51.6969C59.4196 51.9634 59.7312 52.1895 60.07 52.3695C60.5157 52.6095 60.988 52.7958 61.4772 52.924C61.639 52.9726 61.7996 53.0238 61.9595 53.0775L62.2019 53.1665L62.2712 53.195C62.5104 53.2809 62.7283 53.416 62.9121 53.5916C63.0393 53.7116 63.1375 53.8587 63.1986 54.023C63.2364 54.1726 63.237 54.3293 63.2005 54.4796C63.1239 54.7216 62.9557 54.9239 62.732 55.043C62.4884 55.17 62.2243 55.2528 61.9519 55.2874C61.5523 55.351 61.147 55.3716 60.743 55.3486C60.2133 55.3088 59.6862 55.2384 59.1646 55.1377C58.8919 55.0809 58.6206 55.0177 58.3517 54.9463L58.251 54.9211ZM51.2344 57.7518H54.2125V45.9028H51.2344V57.7518ZM85.7123 49.4017C86.0306 49.1416 86.3971 48.9474 86.7906 48.8303C87.1842 48.7132 87.597 48.6755 88.0051 48.7193C88.4133 48.7632 88.8088 48.8877 89.1687 49.0858C89.5286 49.2839 89.8458 49.5516 90.1019 49.8734C90.3581 50.1952 90.5481 50.5647 90.661 50.9606C90.7739 51.3565 90.8075 51.7709 90.7598 52.1799C90.7121 52.5889 90.5841 52.9844 90.3831 53.3434C90.1821 53.7025 89.9122 54.018 89.5889 54.2718C88.9438 54.7719 88.1285 54.9976 87.3189 54.9001C86.5094 54.8026 85.7705 54.3898 85.2617 53.7507C84.7529 53.1116 84.515 52.2974 84.5993 51.4839C84.6836 50.6705 85.0833 49.9222 85.7123 49.4017ZM81.3886 51.8326C81.4028 52.7575 81.622 53.6676 82.0302 54.4969C82.4385 55.3263 83.0257 56.0541 83.7491 56.6276C84.4726 57.2011 85.3142 57.6059 86.213 57.8127C87.1117 58.0195 88.0451 58.0231 88.9454 57.8232C90.1547 57.5948 91.2661 57.0028 92.1319 56.1257C92.9977 55.2486 93.5769 54.128 93.7926 52.9128C94.0084 51.6976 93.8503 50.4453 93.3396 49.3224C92.8288 48.1994 91.9895 47.2589 90.9332 46.6259C89.995 46.0434 88.9199 45.7203 87.817 45.6892C86.7141 45.6581 85.6226 45.9203 84.6533 46.449C83.684 46.9777 82.8714 47.7543 82.2979 48.6998C81.7245 49.6453 81.4105 50.7261 81.388 51.8326" fill="#6A7282"/>
<path d="M32 36.3804C32.0212 36.6583 32.12 36.9246 32.2852 37.1487C32.4504 37.3729 32.6751 37.5458 32.9338 37.6476C33.1924 37.7495 33.4744 37.7762 33.7475 37.7246C34.0205 37.6731 34.2736 37.5454 34.4776 37.3562C34.7509 37.1017 34.9183 36.7531 34.946 36.3804V33.0962C34.9381 32.7096 34.7794 32.3416 34.504 32.071C34.2286 31.8004 33.8585 31.6489 33.473 31.6489C33.0875 31.6489 32.7174 31.8004 32.442 32.071C32.1667 32.3416 32.008 32.7096 32 33.0962V36.3804Z" fill="#6A7282"/>
<path d="M40.1562 36.3804C40.1845 36.7531 40.3519 37.1014 40.6251 37.3556C40.8982 37.6098 41.257 37.7512 41.6296 37.7516C42.0022 37.7515 42.361 37.6102 42.6342 37.3559C42.9073 37.1016 43.0745 36.7532 43.1023 36.3804V29.0181C43.0886 28.6354 42.9274 28.2729 42.6527 28.007C42.3779 27.7411 42.0111 27.5925 41.6293 27.5925C41.2475 27.5925 40.8806 27.7411 40.6058 28.007C40.3311 28.2729 40.1699 28.6354 40.1562 29.0181V36.3811" fill="#6A7282"/>
<path d="M48.2656 39.3457C48.2923 39.7192 48.4591 40.0687 48.7323 40.3239C49.0056 40.579 49.365 40.7209 49.7383 40.7209C50.1116 40.7209 50.4711 40.579 50.7443 40.3239C51.0176 40.0687 51.1843 39.7192 51.211 39.3457V23.4204C51.1919 23.0416 51.0284 22.6846 50.7543 22.4232C50.4802 22.1619 50.1165 22.0161 49.7383 22.0161C49.3602 22.0161 48.9964 22.1619 48.7224 22.4232C48.4483 22.6846 48.2848 23.0416 48.2656 23.4204V39.3457Z" fill="#6A7282"/>
<path d="M56.4453 36.3804C56.4735 36.7531 56.641 37.1014 56.9141 37.3556C57.1873 37.6098 57.546 37.7512 57.9186 37.7516C58.2913 37.7515 58.6501 37.6102 58.9232 37.3559C59.1963 37.1016 59.3636 36.7532 59.3913 36.3804V29.0181C59.3777 28.6354 59.2165 28.2729 58.9418 28.007C58.667 27.7411 58.3001 27.5925 57.9183 27.5925C57.5365 27.5925 57.1697 27.7411 56.8949 28.007C56.6202 28.2729 56.459 28.6354 56.4453 29.0181V36.3811" fill="#6A7282"/>
<path d="M64.5859 36.3804C64.6071 36.6583 64.706 36.9246 64.8711 37.1487C65.0363 37.3729 65.2611 37.5458 65.5197 37.6476C65.7783 37.7495 66.0603 37.7762 66.3334 37.7246C66.6065 37.6731 66.8595 37.5454 67.0635 37.3562C67.3368 37.1017 67.5043 36.7531 67.532 36.3804V33.0962C67.524 32.7096 67.3653 32.3416 67.0899 32.071C66.8146 31.8004 66.4444 31.6489 66.059 31.6489C65.6735 31.6489 65.3034 31.8004 65.028 32.071C64.7526 32.3416 64.5939 32.7096 64.5859 33.0962V36.3804Z" fill="#6A7282"/>
<path d="M72.7344 36.3804C72.7626 36.7531 72.93 37.1014 73.2032 37.3556C73.4764 37.6098 73.8351 37.7512 74.2077 37.7516C74.5803 37.7515 74.9392 37.6102 75.2123 37.3559C75.4854 37.1016 75.6526 36.7532 75.6804 36.3804V29.0181C75.6667 28.6354 75.5056 28.2729 75.2308 28.007C74.9561 27.7411 74.5892 27.5925 74.2074 27.5925C73.8256 27.5925 73.4587 27.7411 73.184 28.007C72.9092 28.2729 72.748 28.6354 72.7344 29.0181V36.3811" fill="#6A7282"/>
<path d="M80.8516 39.3457C80.8783 39.7192 81.045 40.0687 81.3182 40.3239C81.5915 40.579 81.951 40.7209 82.3243 40.7209C82.6976 40.7209 83.057 40.579 83.3303 40.3239C83.6035 40.0687 83.7703 39.7192 83.797 39.3457V23.4204C83.7778 23.0416 83.6143 22.6846 83.3402 22.4232C83.0662 22.1619 82.7024 22.0161 82.3243 22.0161C81.9461 22.0161 81.5824 22.1619 81.3083 22.4232C81.0342 22.6846 80.8707 23.0416 80.8516 23.4204V39.3457Z" fill="#6A7282"/>
<path d="M89.0312 36.3804C89.0595 36.7531 89.2269 37.1014 89.5001 37.3556C89.7732 37.6098 90.132 37.7512 90.5046 37.7516C90.8772 37.7515 91.236 37.6102 91.5092 37.3559C91.7823 37.1016 91.9495 36.7532 91.9773 36.3804V29.0181C91.9636 28.6354 91.8024 28.2729 91.5277 28.007C91.2529 27.7411 90.8861 27.5925 90.5043 27.5925C90.1225 27.5925 89.7556 27.7411 89.4808 28.007C89.2061 28.2729 89.0449 28.6354 89.0312 29.0181V36.3811" fill="#6A7282"/>
<path d="M97.0859 36.3804C97.1071 36.6583 97.206 36.9246 97.3711 37.1487C97.5363 37.3729 97.7611 37.5458 98.0197 37.6476C98.2783 37.7495 98.5603 37.7762 98.8334 37.7246C99.1065 37.6731 99.3595 37.5454 99.5635 37.3562C99.8368 37.1017 100.004 36.7531 100.032 36.3804V33.0962C100.024 32.7096 99.8653 32.3416 99.5899 32.071C99.3146 31.8004 98.9444 31.6489 98.559 31.6489C98.1735 31.6489 97.8034 31.8004 97.528 32.071C97.2526 32.3416 97.0939 32.7096 97.0859 33.0962V36.3804Z" fill="#6A7282"/>
</g>
<defs>
<clipPath id="clip0_2003_12604">
<rect width="68" height="36" fill="white" transform="translate(32 22)"/>
</clipPath>
</defs>
</svg>
