<svg width="158" height="80" viewBox="0 0 158 80" fill="none" xmlns="http://www.w3.org/2000/svg">
<path fill-rule="evenodd" clip-rule="evenodd" d="M57.1156 32.0935L49.1016 47.9066H41.5741L44.928 41.3529H44.7775C42.0106 44.9784 37.8822 47.365 32 47.9066V41.4437C32 41.4437 35.763 41.2193 37.9752 38.8718H32V32.0936H38.7154V37.6686L38.8662 37.668L41.6104 32.0936H46.6891V37.6333L46.8397 37.633L49.6869 32.0935H57.1156Z" fill="#6A7282"/>
<path d="M100.816 46.1611H102.979V33.6309H100.816V46.1611Z" fill="#6A7282"/>
<path fill-rule="evenodd" clip-rule="evenodd" d="M88.8949 46.0332C89.3649 46.2304 89.8429 46.3291 90.3288 46.3291C91.1316 46.3291 91.8499 46.1319 92.4837 45.7373C93.1174 45.3429 93.6087 44.7992 93.9572 44.1061C94.3058 43.4078 94.4801 42.6161 94.4801 41.7312C94.4801 40.8463 94.3005 40.0546 93.9414 39.3563C93.5822 38.658 93.0831 38.1169 92.444 37.733C91.805 37.3439 91.0787 37.152 90.2654 37.1573C89.7479 37.1573 89.2514 37.2586 88.776 37.4612C88.3007 37.6637 87.9046 37.9516 87.5877 38.3248C87.5632 38.3532 87.5395 38.3819 87.5164 38.4109V33.6389H85.3457V46.1612H87.5006L87.4962 44.9914C87.5519 45.0604 87.6115 45.1277 87.6748 45.1936C88.0181 45.5508 88.4248 45.8306 88.8949 46.0332ZM91.1131 44.0102C90.7592 44.2288 90.3552 44.338 89.901 44.338C89.452 44.338 89.0401 44.226 88.6651 44.0022C88.2901 43.7729 87.9917 43.4611 87.7699 43.0666C87.5533 42.6721 87.445 42.2243 87.445 41.7232C87.4398 41.2221 87.5454 40.7743 87.7619 40.3798C87.9838 39.98 88.2822 39.6708 88.6572 39.4523C89.0322 39.2284 89.4468 39.1191 89.901 39.1244C90.3552 39.1191 90.7592 39.2257 91.1131 39.4443C91.4722 39.6575 91.7468 39.964 91.937 40.3638C92.1324 40.7583 92.2302 41.2115 92.2302 41.7232C92.2302 42.235 92.1324 42.6881 91.937 43.0826C91.7468 43.4771 91.4722 43.7863 91.1131 44.0102Z" fill="#6A7282"/>
<path d="M60.248 34.3906H62.7198L64.9309 42.541L67.2831 34.3906H69.3429L71.8939 42.3775L74.017 34.3906H76.2828L72.9396 46.1613H70.8085L68.2145 38.3587L65.8333 46.1613H63.6784L60.248 34.3906Z" fill="#6A7282"/>
<path fill-rule="evenodd" clip-rule="evenodd" d="M79.934 46.369C79.0731 46.3744 78.2967 46.1824 77.6048 45.7934C76.9182 45.3988 76.3769 44.8524 75.9807 44.1541C75.5899 43.4557 75.3945 42.6588 75.3945 41.7631C75.3945 40.8942 75.5952 40.1079 75.9967 39.4043C76.398 38.7006 76.942 38.1515 77.6286 37.757C78.3152 37.3625 79.081 37.1653 79.926 37.1653C80.8767 37.1653 81.7085 37.3785 82.4216 37.805C83.1399 38.2315 83.6759 38.8365 84.0298 39.6202C84.3889 40.3985 84.5184 41.2914 84.418 42.2989H77.632C77.651 42.7003 77.7502 43.0655 77.9297 43.3944C78.1304 43.7569 78.4103 44.0394 78.7694 44.242C79.1286 44.4446 79.5299 44.5459 79.9736 44.5459C80.3116 44.5405 80.6259 44.4819 80.9163 44.37C81.2069 44.2527 81.4524 44.0955 81.6531 43.8982C81.8591 43.7009 82.0044 43.4771 82.0889 43.2265H84.3546C84.2173 43.8396 83.9427 44.386 83.5308 44.8657C83.1187 45.3402 82.6012 45.7107 81.9779 45.9772C81.3547 46.2438 80.6734 46.3744 79.934 46.369ZM77.9376 40.0999C77.811 40.3227 77.7233 40.5626 77.6745 40.8196H82.1728C82.1402 40.4949 82.0409 40.1991 81.875 39.932C81.6848 39.6175 81.426 39.3749 81.0986 39.2043C80.7712 39.0284 80.4014 38.9405 79.9895 38.9405C79.5511 38.9405 79.1524 39.0418 78.7932 39.2443C78.434 39.4469 78.1488 39.7321 77.9376 40.0999Z" fill="#6A7282"/>
<path d="M96.0721 37.3493C96.0721 36.635 96.2331 36.0006 96.5553 35.4462C96.8774 34.8865 97.3291 34.452 97.91 34.1428C98.4962 33.8283 99.1802 33.6657 99.9618 33.655V35.5981C99.5974 35.6035 99.2858 35.6808 99.0271 35.83C98.7735 35.974 98.5781 36.1845 98.4408 36.4617C98.3144 36.7169 98.2462 37.0128 98.2362 37.3493H99.9143V39.1965H98.2348V46.1613H96.0721V39.1965H94.6777V37.3493H96.0721Z" fill="#6A7282"/>
<path fill-rule="evenodd" clip-rule="evenodd" d="M108.478 46.353C107.596 46.353 106.806 46.1584 106.109 45.7693C105.417 45.3748 104.873 44.8311 104.477 44.138C104.086 43.4397 103.891 42.6481 103.891 41.7631C103.891 40.8729 104.086 40.0786 104.477 39.3802C104.873 38.6765 105.417 38.1301 106.109 37.741C106.806 37.3518 107.596 37.1572 108.478 37.1572C109.365 37.1572 110.157 37.3518 110.854 37.741C111.557 38.1301 112.103 38.6739 112.494 39.3722C112.885 40.0706 113.083 40.8675 113.088 41.7631C113.083 42.6481 112.885 43.4397 112.494 44.138C112.109 44.8311 111.565 45.3748 110.862 45.7693C110.16 46.1584 109.365 46.353 108.478 46.353ZM108.478 44.346C108.942 44.346 109.354 44.2393 109.713 44.0261C110.073 43.8075 110.35 43.5037 110.545 43.1145C110.741 42.72 110.838 42.2695 110.838 41.7631C110.838 41.2513 110.741 40.7982 110.545 40.4037C110.35 40.0093 110.073 39.7054 109.713 39.4922C109.354 39.2736 108.942 39.1643 108.478 39.1643C108.018 39.1643 107.609 39.2736 107.25 39.4922C106.896 39.7054 106.621 40.0093 106.426 40.4037C106.23 40.7982 106.135 41.2513 106.141 41.7631C106.141 42.2695 106.238 42.72 106.434 43.1145C106.634 43.5037 106.909 43.8075 107.258 44.0261C107.611 44.2393 108.018 44.346 108.478 44.346Z" fill="#6A7282"/>
<path d="M115.426 37.3491H113.018L115.624 46.1611H117.731L119.446 40.5329L121.296 46.1611H123.372L125.986 37.3491H123.808L122.325 42.834L120.686 37.3491H118.579L116.948 42.9548L115.426 37.3491Z" fill="#6A7282"/>
</svg>
