<svg width="172" height="80" viewBox="0 0 172 80" fill="none" xmlns="http://www.w3.org/2000/svg">
<g clip-path="url(#clip0_104_1745)">
<path d="M88.6235 39.426C88.6445 35.5454 86.1269 32.9591 82.4892 32.9591C78.6582 32.9591 75.8821 35.8529 75.8821 39.7328C75.8821 43.6127 78.7016 46.5508 82.5971 46.5508C85.4811 46.5508 87.7843 44.9719 88.5801 42.1001H85.8684C85.4593 43.328 84.2762 43.9637 82.726 43.9637C80.574 43.9637 79.0889 42.6045 78.8305 40.6318H88.5156C88.5801 40.2151 88.6235 40.0182 88.6235 39.426ZM78.9384 38.308C79.3685 36.5757 80.7239 35.5019 82.4682 35.5019C84.2124 35.5019 85.5455 36.6199 85.804 38.308H78.9384ZM133.912 43.963C131.76 43.963 130.275 42.6038 130.016 40.6311H139.702C139.766 40.2144 139.809 40.0175 139.809 39.4253C139.831 35.5447 137.313 32.9584 133.676 32.9584C129.844 32.9584 127.068 35.8522 127.068 39.7321C127.068 43.612 129.887 46.5501 133.783 46.5501C136.667 46.5501 138.971 44.9711 139.766 42.0994H137.054C136.646 43.3273 135.461 43.963 133.912 43.963ZM133.654 35.5012C135.419 35.5012 136.731 36.6192 136.989 38.3073H130.124C130.555 36.5749 131.911 35.5012 133.654 35.5012ZM122.979 34.7335C121.924 33.6155 120.482 32.9577 118.802 32.9577C115.252 32.9577 112.496 35.8736 112.496 39.7977C112.496 43.7218 115.338 46.5493 118.802 46.5493C120.461 46.5493 121.924 45.8915 122.979 44.7735V46.2811H125.841V29.2768H122.979V34.7342V34.7335ZM119.169 43.876C116.974 43.876 115.402 42.1879 115.402 39.7984C115.402 37.409 116.974 35.7209 119.169 35.7209C121.365 35.7209 123 37.3862 123 39.7984C123 42.2107 121.407 43.876 119.169 43.876ZM111.517 30.7095C111.517 31.6948 110.821 32.404 109.854 32.404C108.887 32.404 108.171 31.7148 108.171 30.7295C108.171 29.7442 108.867 29.035 109.854 29.035C110.84 29.035 111.517 29.7242 111.517 30.7095ZM108.477 33.2388H111.211V46.2825H108.477V33.2395V33.2388ZM102.139 35.3485C100.589 35.3485 100.309 36.3567 100.309 36.8389C100.309 37.4968 100.805 37.9349 102.16 38.2859L103.709 38.7025C106.077 39.3603 107.175 40.544 107.175 42.429C107.153 44.8841 105.238 46.5501 102.525 46.5501C99.8132 46.5501 97.5969 45.1688 97.2957 42.2314H99.6418C99.9212 43.5028 100.911 44.1606 102.353 44.1606C103.688 44.1606 104.463 43.547 104.463 42.6702C104.463 41.9467 103.946 41.5086 102.612 41.1355L101.105 40.6967C98.9314 40.061 97.6396 38.9865 97.6396 36.926C97.6396 34.3832 99.6202 32.9584 102.095 32.9584C104.57 32.9584 106.701 34.6022 107.132 36.8168L107.196 37.1458H104.678L104.613 36.9703C104.247 35.9835 103.387 35.3478 102.139 35.3478L102.139 35.3485ZM97.2285 35.8158C97.2285 35.8158 96.6736 35.6332 95.9403 35.6332C93.9382 35.6332 92.6689 36.9431 92.6689 39.0693V46.2818H89.8277V33.2395H92.6689V34.7742C93.4871 33.5684 94.6058 32.9598 95.962 32.9598C96.6092 32.9598 97.2285 33.1574 97.2285 33.1574V35.8173V35.8158ZM72.9967 34.8348C71.8556 33.6319 70.2633 32.9534 68.6059 32.9534C66.9485 32.9534 65.4418 33.6754 64.4085 35.0096V33.2381H61.5673V51H64.4085V44.5473C65.4635 45.838 66.9051 46.5593 68.6059 46.5593C71.9844 46.5593 74.804 43.8467 74.804 39.757C74.804 37.8314 74.1581 36.0819 72.9967 34.8348ZM68.1969 43.8688C66.0015 43.8688 64.4085 42.1629 64.4085 39.757C64.4085 37.3512 66.0015 35.6446 68.1751 35.6446C70.3488 35.6446 71.9634 37.4162 71.9634 39.757C71.9634 42.098 70.4132 43.8688 68.1969 43.8688ZM59.8454 46.2818H56.9615V45.1252C56.1433 46.0456 54.9812 46.5501 53.5822 46.5501C50.7628 46.5501 48.6535 44.5773 48.6535 41.3545V36.0221H51.5375V41.0264C51.5375 43.0647 52.7858 43.8545 54.2064 43.8545C55.9065 43.8545 56.9615 42.6488 56.9615 40.7195V33.2388H59.8454V46.2825V46.2818ZM47.5685 41.7841C47.7765 44.862 45.0915 46.5693 43.018 46.5643C42.0254 46.5622 40.9403 46.1634 40.0374 45.5241L38.602 44.5095C37.4917 43.7375 37.1737 43.6048 36.7548 43.6034C35.7405 43.6006 35.0834 44.3247 35.1471 45.2701C35.1696 45.5997 35.1815 45.8637 35.4729 46.2604L32.3914 46.2525C32.163 45.8123 32.0397 45.2843 32.0082 44.8227C31.8611 42.6467 33.7083 40.6068 36.4424 40.6133C37.5674 40.6161 38.7372 40.9707 39.6654 41.6542L41.7066 43.1539C42.0996 43.4186 42.4169 43.5514 42.8583 43.5527C44.1374 43.5556 44.5892 42.414 44.5388 41.6663C44.5059 41.1826 44.2558 40.7424 43.8383 40.4335L39.7978 37.4119C38.6609 36.5736 37.9737 35.2094 37.877 33.7803C37.6697 30.7024 40.354 28.995 42.4275 29C43.4201 29.0022 44.5052 29.401 45.4081 30.0403L46.8435 31.0548C47.9538 31.8268 48.2718 31.9595 48.6907 31.9602C49.705 31.9631 50.2444 31.2389 50.1807 30.2935C50.1582 29.9639 50.1463 29.6999 49.8549 29.3032L52.9364 29.3111C53.1648 29.7513 53.6152 32.4461 51.7504 33.9815C49.2357 36.052 46.7068 34.5929 45.7794 33.9087L43.7381 32.409C43.3451 32.1443 43.0278 32.0116 42.5865 32.0102C41.3074 32.0073 40.8555 33.1489 40.9046 33.8745C40.9375 34.3582 41.189 34.8205 41.5847 35.1288L45.6469 38.1503C46.7825 38.9665 47.4725 40.375 47.5677 41.7819L47.5685 41.7841Z" fill="#6A7282"/>
</g>
<defs>
<clipPath id="clip0_104_1745">
<rect width="108" height="22" fill="white" transform="translate(32 29)"/>
</clipPath>
</defs>
</svg>
