<svg xmlns="http://www.w3.org/2000/svg" xmlns:xlink="http://www.w3.org/1999/xlink" width="500" zoomAndPan="magnify" viewBox="0 0 375 149.999998" height="200" preserveAspectRatio="xMidYMid meet" version="1.2"><defs><clipPath id="6646449e21"><path d="M 257.898438 19.246094 L 369.035156 19.246094 L 369.035156 132.554688 L 257.898438 132.554688 Z M 257.898438 19.246094 "/></clipPath><clipPath id="b661be63ac"><path d="M 269.117188 19.246094 L 357.820312 19.246094 C 364.015625 19.246094 369.035156 24.265625 369.035156 30.460938 L 369.035156 121.074219 C 369.035156 127.269531 364.015625 132.289062 357.820312 132.289062 L 269.117188 132.289062 C 262.921875 132.289062 257.898438 127.269531 257.898438 121.074219 L 257.898438 30.460938 C 257.898438 24.265625 262.921875 19.246094 269.117188 19.246094 Z M 269.117188 19.246094 "/></clipPath><clipPath id="cbce44ec56"><path d="M 0.898438 0.246094 L 112.035156 0.246094 L 112.035156 113.480469 L 0.898438 113.480469 Z M 0.898438 0.246094 "/></clipPath><clipPath id="9844bdea4a"><path d="M 12.117188 0.246094 L 100.820312 0.246094 C 107.015625 0.246094 112.035156 5.265625 112.035156 11.460938 L 112.035156 102.074219 C 112.035156 108.269531 107.015625 113.289062 100.820312 113.289062 L 12.117188 113.289062 C 5.921875 113.289062 0.898438 108.269531 0.898438 102.074219 L 0.898438 11.460938 C 0.898438 5.265625 5.921875 0.246094 12.117188 0.246094 Z M 12.117188 0.246094 "/></clipPath><clipPath id="87e209aafa"><rect x="0" width="113" y="0" height="114"/></clipPath><clipPath id="e3e6a5125c"><rect x="0" width="109" y="0" height="150"/></clipPath></defs><g id="9dcece7063"><g clip-rule="nonzero" clip-path="url(#6646449e21)"><g clip-rule="nonzero" clip-path="url(#b661be63ac)"><g transform="matrix(1,0,0,1,257,19)"><g clip-path="url(#87e209aafa)"><g clip-rule="nonzero" clip-path="url(#cbce44ec56)"><g clip-rule="nonzero" clip-path="url(#9844bdea4a)"><path style=" stroke:none;fill-rule:nonzero;fill:#51a2ff;fill-opacity:1;" d="M 0.898438 0.246094 L 112.035156 0.246094 L 112.035156 113.121094 L 0.898438 113.121094 Z M 0.898438 0.246094 "/></g></g></g></g></g></g><g style="fill:#000000;fill-opacity:1;"><g transform="translate(-1.139299, 108.373473)"><path style="stroke:none" d="M 81.296875 -66.59375 L 81.296875 0 L 65.078125 0 L 65.078125 -39.9375 L 50.1875 0 L 37.09375 0 L 22.109375 -40.03125 L 22.109375 0 L 5.875 0 L 5.875 -66.59375 L 25.046875 -66.59375 L 43.734375 -20.484375 L 62.234375 -66.59375 Z M 81.296875 -66.59375 "/></g></g><g style="fill:#000000;fill-opacity:1;"><g transform="translate(85.934373, 108.373473)"><path style="stroke:none" d="M 2.65625 -26.5625 C 2.65625 -32 3.679688 -36.769531 5.734375 -40.875 C 7.796875 -44.988281 10.597656 -48.148438 14.140625 -50.359375 C 17.679688 -52.578125 21.628906 -53.6875 25.984375 -53.6875 C 29.722656 -53.6875 33 -52.925781 35.8125 -51.40625 C 38.625 -49.894531 40.789062 -47.90625 42.3125 -45.4375 L 42.3125 -52.9375 L 58.53125 -52.9375 L 58.53125 0 L 42.3125 0 L 42.3125 -7.5 C 40.726562 -5.03125 38.53125 -3.035156 35.71875 -1.515625 C 32.90625 0.00390625 29.628906 0.765625 25.890625 0.765625 C 21.597656 0.765625 17.679688 -0.351562 14.140625 -2.59375 C 10.597656 -4.84375 7.796875 -8.039062 5.734375 -12.1875 C 3.679688 -16.332031 2.65625 -21.125 2.65625 -26.5625 Z M 42.3125 -26.46875 C 42.3125 -30.507812 41.1875 -33.703125 38.9375 -36.046875 C 36.695312 -38.390625 33.960938 -39.5625 30.734375 -39.5625 C 27.503906 -39.5625 24.765625 -38.40625 22.515625 -36.09375 C 20.273438 -33.78125 19.15625 -30.601562 19.15625 -26.5625 C 19.15625 -22.507812 20.273438 -19.296875 22.515625 -16.921875 C 24.765625 -14.554688 27.503906 -13.375 30.734375 -13.375 C 33.960938 -13.375 36.695312 -14.539062 38.9375 -16.875 C 41.1875 -19.21875 42.3125 -22.414062 42.3125 -26.46875 Z M 42.3125 -26.46875 "/></g></g><g style="fill:#000000;fill-opacity:1;"><g transform="translate(150.338536, 108.373473)"><path style="stroke:none" d="M 22.109375 -44.109375 C 24.003906 -47.015625 26.375 -49.304688 29.21875 -50.984375 C 32.0625 -52.660156 35.222656 -53.5 38.703125 -53.5 L 38.703125 -36.328125 L 34.25 -36.328125 C 30.195312 -36.328125 27.160156 -35.457031 25.140625 -33.71875 C 23.117188 -31.976562 22.109375 -28.925781 22.109375 -24.5625 L 22.109375 0 L 5.875 0 L 5.875 -52.9375 L 22.109375 -52.9375 Z M 22.109375 -44.109375 "/></g></g><g style="fill:#000000;fill-opacity:1;"><g transform="translate(190.934985, 108.373473)"><path style="stroke:none" d="M 38.234375 0 L 22.109375 -22.203125 L 22.109375 0 L 5.875 0 L 5.875 -70.203125 L 22.109375 -70.203125 L 22.109375 -31.40625 L 38.140625 -52.9375 L 58.15625 -52.9375 L 36.140625 -26.375 L 58.34375 0 Z M 38.234375 0 "/></g></g><g transform="matrix(1,0,0,1,265,-0.000000000000007527)"><g clip-path="url(#e3e6a5125c)"><g style="fill:#ffffff;fill-opacity:1;"><g transform="translate(4.561941, 110.872729)"><path style="stroke:none" d="M 39.9375 -62.15625 C 37.882812 -62.15625 36.101562 -62.816406 34.59375 -64.140625 C 33.09375 -65.472656 32.34375 -66.984375 32.34375 -68.671875 C 32.34375 -72.046875 34.632812 -73.734375 39.21875 -73.734375 C 40.90625 -73.734375 42.585938 -73.160156 44.265625 -72.015625 C 45.953125 -70.867188 46.796875 -69.453125 46.796875 -67.765625 C 46.796875 -66.316406 46.015625 -65.019531 44.453125 -63.875 C 42.890625 -62.726562 41.382812 -62.15625 39.9375 -62.15625 Z M 6.5 1.984375 C 3.851562 1.984375 1.660156 1.113281 -0.078125 -0.625 C -1.828125 -2.375 -2.703125 -5.476562 -2.703125 -9.9375 C -2.703125 -12.46875 -2.128906 -15.390625 -0.984375 -18.703125 C 0.148438 -22.015625 1.59375 -25.359375 3.34375 -28.734375 C 5.09375 -32.109375 6.8125 -35.117188 8.5 -37.765625 C 15.238281 -48.734375 20.78125 -54.273438 25.125 -54.390625 C 26.207031 -54.390625 27.53125 -53.9375 29.09375 -53.03125 C 30.65625 -52.132812 31.4375 -51.144531 31.4375 -50.0625 C 31.4375 -50.0625 26.859375 -44.15625 17.703125 -32.34375 C 8.671875 -20.65625 4.15625 -12.34375 4.15625 -7.40625 C 4.15625 -3.550781 5.660156 -1.625 8.671875 -1.625 C 10.597656 -1.625 13.097656 -2.4375 16.171875 -4.0625 C 19.242188 -5.6875 22.46875 -7.765625 25.84375 -10.296875 C 29.21875 -12.828125 32.4375 -15.535156 35.5 -18.421875 C 38.570312 -21.316406 41.070312 -23.96875 43 -26.375 C 44.207031 -27.945312 45.265625 -29.03125 46.171875 -29.625 C 47.078125 -30.226562 47.648438 -30.53125 47.890625 -30.53125 C 48.367188 -30.53125 48.609375 -30.171875 48.609375 -29.453125 C 48.609375 -28.847656 47.914062 -27.640625 46.53125 -25.828125 C 45.144531 -24.023438 43.25 -21.921875 40.84375 -19.515625 C 37.945312 -16.617188 34.75 -13.484375 31.25 -10.109375 C 27.757812 -6.742188 23.96875 -3.882812 19.875 -1.53125 C 15.78125 0.8125 11.320312 1.984375 6.5 1.984375 Z M 6.5 1.984375 "/></g></g><g style="fill:#ffffff;fill-opacity:1;"><g transform="translate(45.396674, 110.872729)"><path style="stroke:none" d="M 7.765625 0.359375 C 4.753906 0.359375 2.40625 -1.050781 0.71875 -3.875 C -0.96875 -6.707031 -1.8125 -9.453125 -1.8125 -12.109375 C -1.8125 -19.335938 3.429688 -29.457031 13.921875 -42.46875 C 24.515625 -55.59375 33.066406 -62.15625 39.578125 -62.15625 C 45.722656 -62.15625 48.796875 -58.90625 48.796875 -52.40625 C 48.796875 -51.4375 48.703125 -50.410156 48.515625 -49.328125 C 48.335938 -48.242188 48.128906 -47.101562 47.890625 -45.90625 C 48.128906 -45.539062 48.726562 -45.359375 49.6875 -45.359375 C 52.945312 -45.359375 56.804688 -46.503906 61.265625 -48.796875 C 61.140625 -46.742188 56.378906 -43.789062 46.984375 -39.9375 C 48.304688 -35.957031 44.332031 -28.367188 35.0625 -17.171875 C 25.539062 -5.484375 17.40625 0.359375 10.65625 0.359375 Z M 11.015625 -5.0625 C 16.203125 -5.0625 22.832031 -9.816406 30.90625 -19.328125 C 38.726562 -28.609375 42.640625 -35.296875 42.640625 -39.390625 C 40.710938 -40.472656 38.304688 -43.242188 35.421875 -47.703125 C 31.328125 -47.703125 25.421875 -42.765625 17.703125 -32.890625 C 10.117188 -23.253906 6.445312 -15.84375 6.6875 -10.65625 C 6.800781 -6.925781 8.242188 -5.0625 11.015625 -5.0625 Z M 11.015625 -5.0625 "/></g></g></g></g></g></svg>